# Blender v2.74 (sub 0) OBJ File: 'Box_Textured_01.blend'
# www.blender.org
mtllib Box_Textured_01.mtl
o Cube
v 1.000000 0.002387 -1.000000
v 1.000000 0.002387 1.000000
v -1.000000 0.002387 1.000000
v -1.000000 0.002387 -1.000000
v 1.000000 2.002387 -0.999999
v 0.999999 2.002387 1.000001
v -1.000000 2.002387 1.000000
v -1.000000 2.002387 -1.000000
vt 0.498898 0.748422
vt 0.249039 0.748422
vt 0.249039 0.498172
vt 0.498899 0.498172
vt 0.498899 0.000852
vt 0.498899 0.251102
vt 0.248649 0.251102
vt 0.248649 0.000852
vt 0.498953 0.746207
vt 0.498953 0.996457
vt 0.248703 0.996457
vt 0.248703 0.746207
vt 0.000602 0.000207
vt 0.250852 0.000207
vt 0.250852 0.250457
vt 0.000602 0.250457
vt 0.248465 0.499777
vt 0.248465 0.250602
vt 0.498715 0.250602
vt 0.498715 0.499777
vt 0.498703 -0.000125
vt 0.748953 -0.000125
vt 0.748953 0.250125
vt 0.498703 0.250125
vn 0.000000 -1.000000 -0.000000
vn 0.000000 1.000000 0.000000
vn 1.000000 0.000000 0.000000
vn -0.000000 -0.000000 1.000000
vn -1.000000 -0.000000 -0.000000
vn 0.000000 0.000000 -1.000000
usemtl Material
s off
f 1/1/1 2/2/1 3/3/1 4/4/1
f 5/5/2 8/6/2 7/7/2 6/8/2
f 1/9/3 5/10/3 6/11/3 2/12/3
f 2/13/4 6/14/4 7/15/4 3/16/4
f 3/17/5 7/18/5 8/19/5 4/20/5
f 5/21/6 1/22/6 4/23/6 8/24/6
